<svg xmlns="http://www.w3.org/2000/svg" version="1.1" xmlns:xlink="http://www.w3.org/1999/xlink" xmlns:svgjs="http://svgjs.dev/svgjs" viewBox="0 0 800 800"><defs><linearGradient x1="50%" y1="0%" x2="50%" y2="100%" id="uundulate-grad"><stop stop-color="#7b2de0" stop-opacity="1" offset="45%"></stop><stop stop-color="#2a025e" stop-opacity="1" offset="100%"></stop></linearGradient></defs><g stroke-width="2" stroke="url(#uundulate-grad)" fill="none"><path d="M1796.35022216575 -1050.9538132539096C2104.036220614784 -571.8399547859931 2227.637832789026 1020.2458530640988 1604.8878128728015 1610.7193561967815C982.1377929565765 2201.192859329464 -885.1638749830948 2262.432860250889 -1192.8498734321288 1783.319001782972C-1500.5358718811626 1304.2051433150555 -494.7549995987806 -98.55366131653795 127.99502031744419 -689.0271644492205C750.745040233669 -1279.5006675819031 1488.6642237167162 -1530.0676717218264 1796.35022216575 -1050.9538132539096C2104.036220614784 -571.8399547859931 2227.637832789026 1020.2458530640988 1604.8878128728015 1610.7193561967815 "></path><path d="M1732.8798476874235 -985.0014518138349C2026.5801189342292 -527.6654960035507 2144.5634760096423 992.0527751260825 1550.1202751805185 1555.6865735709157C955.6770743513944 2119.320372015749 -826.7472450455642 2177.7767365316545 -1120.4475162923693 1720.4407807213702C-1414.1477875391743 1263.1048249110863 -454.08422763326416 -75.89221587361658 140.35897319585933 -639.5260143184498C734.8021740249828 -1203.1598127632833 1439.1795764406188 -1442.337407624119 1732.8798476874235 -985.0014518138349C2026.5801189342292 -527.6654960035507 2144.5634760096423 992.0527751260825 1550.1202751805185 1555.6865735709157 "></path><path d="M1669.4092901036292 -919.0489683034477C1949.1238341482053 -483.49091515079635 2061.4889361247897 963.8598192583781 1495.3525543827668 1500.6539130153624C929.2161726407439 2037.448006772347 -768.3307982135025 2093.1207348827324 -1048.0453422580786 1657.5626817300813C-1327.7598863026549 1222.0046285774297 -413.4136387732167 -53.230648360382474 152.72274296880573 -590.0247421173667C718.8591247108284 -1126.818835874351 1389.6947460590527 -1354.6070214560991 1669.4092901036292 -919.0489683034477C1949.1238341482053 -483.49091515079635 2061.4889361247897 963.8598192583781 1495.3525543827668 1500.6539130153624 "></path><path d="M1605.9387935549903 -853.0965458282167C1871.6676103973382 -439.3163953331979 1978.414457275093 935.6668023555185 1440.5848946201713 1445.6211914246528C902.7553319652498 1955.575580493788 -709.9142903462844 2008.464672198655 -975.6431071886318 1594.6845217036357C-1241.3719240309792 1180.9043712086168 -372.74298887801297 -30.569141882304848 165.08657377690838 -540.5235309514397C702.9161364318297 -1050.4779200205746 1340.2099767126433 -1266.8766963232356 1605.9387935549903 -853.0965458282167C1871.6676103973382 -439.3163953331979 1978.414457275093 935.6668023555185 1440.5848946201713 1445.6211914246528 "></path><path d="M1542.4683580415085 -787.1441538705639C1794.2114476816273 -395.1419060331775 1895.3400394605528 907.4737549350793 1385.817295892732 1390.5884393163656C876.2945523249118 1873.7031236976513 -651.49772144391 1923.8085789969987 -903.2408110840286 1531.806331159612C-1154.9839007241471 1139.8040833222258 -332.0722779476529 -7.907665921805119 177.4504656201675 -491.0223503030909C686.9732091879875 -974.1370346843767 1290.7252684013897 -1179.1464017079502 1542.4683580415085 -787.1441538705639C1794.2114476816273 -395.1419060331775 1895.3400394605528 907.4737549350793 1385.817295892732 1390.5884393163656 "></path><path d="M1478.99786149287 -721.1915482898642C1716.7552239307597 -350.9672031101103 1812.265560610856 879.280921137688 1331.049636130137 1335.5559008311247C849.8337116494176 1791.830880524561 -593.0812135766919 1839.1526994183891 -830.8385760145817 1468.9283542386356C-1068.5959384524715 1098.7040090588816 -291.40162805244904 14.754023661741257 189.81429642826993 -441.5209560316953C671.0302209089891 -897.7959357251318 1241.2404990549803 -1091.415893469618 1478.99786149287 -721.1915482898642C1716.7552239307597 -350.9672031101103 1812.265560610856 879.280921137688 1331.049636130137 1335.5559008311247 "></path><path d="M1415.5274259793878 -655.2392478849456C1639.2990612150488 -306.7928053628244 1729.1911427963155 851.0877821645154 1276.2820374026978 1280.5230571701027C823.3729320090797 1709.9583321756904 -534.6646446743175 1754.4965146639988 -758.4362799099786 1406.0500721418775C-982.2079151456395 1057.6036296197562 -250.73091712208895 37.41540806950661 202.17818827152905 -392.0198669360807C655.0872936651472 -821.4551419416682 1191.7557907437267 -1003.6856904070669 1415.5274259793878 -655.2392478849456C1639.2990612150488 -306.7928053628244 1729.1911427963155 851.0877821645154 1276.2820374026978 1280.5230571701027 "></path><path d="M1352.0569599483274 -589.2868559272928C1561.8428679817594 -262.61831606280407 1646.1166944641973 822.8947347440769 1221.5144081576805 1225.490305061815C796.9121218511636 1628.0858753795533 -476.2481062895213 1669.8404214623429 -686.0340143229535 1343.1718815978538C-895.8199223563856 1016.5033417333652 -210.0602367093071 60.07688403000611 214.54204959720983 -342.51868628773195C639.1443359037269 -745.1142566054701 1142.271051914895 -915.9553957917815 1352.0569599483274 -589.2868559272928C1561.8428679817594 -262.61831606280407 1646.1166944641973 822.8947347440769 1221.5144081576805 1225.490305061815 "></path><path d="M1288.586493917267 -523.3343724169056C1484.3866747484703 -218.44373521004968 1563.042246132079 794.7017788763726 1166.746778912663 1170.4576445062617C770.4513116932476 1546.2135101361505 -417.83156790472515 1585.1844198134204 -613.6317487359286 1280.2937826065645C-809.4319295671319 975.4031453997084 -169.38955629652514 82.73845154323999 226.9059109228906 -293.01741408664884C623.2013781423063 -668.7732797165378 1092.7863130860637 -828.2250096237616 1288.586493917267 -523.3343724169056C1484.3866747484703 -218.44373521004968 1563.042246132079 794.7017788763726 1166.746778912663 1170.4576445062617 "></path><path d="M1225.1159668510504 -457.38182787136213C1406.9304204800246 -174.2690933221386 1479.9677367648046 766.508884043825 1111.9790886324897 1115.4250449858646C743.990440500175 1464.3412059279044 -359.41509055508516 1500.5284791996555 -541.2295441840597 1217.4157446504319C-723.0439978130343 934.3030101012082 -128.71893691889943 105.40008009163034 239.26971121341512 -243.51608085040948C607.2583593457298 -592.4322417924491 1043.301513222076 -740.4945624205856 1225.1159668510504 -457.38182787136213C1406.9304204800246 -174.2690933221386 1479.9677367648046 766.508884043825 1111.9790886324897 1115.4250449858646 "></path><path d="M1161.6455618551463 -391.42943591370926C1329.4742882818919 -130.09460402211835 1396.8933494678422 738.3158366233863 1057.2115204226288 1060.392292877577C717.5296913774152 1382.4687491317673 -300.99849113513267 1415.8723859979987 -468.82721756187846 1154.5375541064077C-636.6559439886241 893.2027222148172 -88.04819547096122 128.06155605212984 251.63363357425214 -194.01490020206063C591.3154626194657 -516.0913564562511 993.8168354284005 -652.7642678053002 1161.6455618551463 -391.42943591370926C1329.4742882818919 -130.09460402211835 1396.8933494678422 738.3158366233863 1057.2115204226288 1060.392292877577 "></path><path d="M1098.175095824086 -325.476952403322C1252.0180950486028 -85.92002316936373 1313.818901135724 710.1228807556822 1002.4438911776117 1005.3596323220236C691.0688812194992 1300.596383888365 -242.58195275033654 1331.216384349077 -396.4249519748534 1091.6594551151188C-550.2679511993704 852.1025258811605 -47.37751505817937 150.72312356536384 263.9974948999329 -144.5136280009774C575.3725048580454 -439.7503795673187 944.332096599569 -565.0338816372803 1098.175095824086 -325.476952403322C1252.0180950486028 -85.92002316936373 1313.818901135724 710.1228807556822 1002.4438911776117 1005.3596323220236 "></path><path d="M1034.7046297930256 -259.5244688929348C1174.5619018153136 -41.745442316609115 1230.7444528036058 681.9299248879781 947.6762619325943 950.3269717664703C664.6080710615829 1218.7240186449626 -184.1654143655403 1246.5603827001553 -324.0226863878284 1028.7813561238297C-463.8799584101165 811.0023295475039 -6.706834645397407 173.38469107859783 276.3613562256138 -95.0123557998943C559.4295470966251 -363.40940267838636 894.8473577707373 -477.30349546926055 1034.7046297930256 -259.5244688929348C1174.5619018153136 -41.745442316609115 1230.7444528036058 681.9299248879781 947.6762619325943 950.3269717664703 "></path><path d="M971.2341942795433 -193.57201590012568C1097.1057390996027 2.42910801856749 1147.6700349890655 653.7369385026959 892.9086632051551 895.294280693339C638.147291421245 1136.851622883982 -125.74884546316594 1161.9043505336556 -251.62039028322522 965.9032266149623C-377.4919351032845 769.9021026962691 33.96387628496268 196.0462280742537 288.7252480688728 -45.511114116389194C543.486619852783 -287.0684563070321 845.3626494594839 -389.57313981881885 971.2341942795433 -193.57201590012568C1097.1057390996027 2.42910801856749 1147.6700349890655 653.7369385026959 892.9086632051551 895.294280693339 "></path><path d="M907.763728248483 -127.61959342489467C1019.6495458663135 46.60362783616597 1064.5955866569468 625.5439215998358 838.141033960138 840.2615591026295C611.6864812633289 1054.9791966054233 -67.3323070783697 1077.2482878495775 -179.21812469620022 903.0250665885169C-291.1039423140307 728.8018453274562 74.63455669774453 218.70773455233143 301.0891093945536 3.9900970495377805C527.5436620913626 -210.72754045325593 795.8779106306524 -301.8428146859553 907.763728248483 -127.61959342489467C1019.6495458663135 46.60362783616597 1064.5955866569468 625.5439215998358 838.141033960138 840.2615591026295 "></path><path d="M844.2932927350007 -61.66710991450748C942.1933831506024 90.77820868892047 981.5211688424067 597.3509657321315 783.3734352326987 785.2288985470761C585.225701622991 973.1068313620206 -8.915738175995386 992.5922862006555 -106.81582859159704 840.1469675972276C-204.71591900719875 687.7016489937996 115.30526762810462 241.3693020655653 313.4530012378125 53.49136925062089C511.60073484752036 -134.38656356432358 746.393202319399 -214.11242851793548 844.2932927350007 -61.66710991450748C942.1933831506024 90.77820868892047 981.5211688424067 597.3509657321315 783.3734352326987 785.2288985470761 "></path><path d="M780.8227961863622 4.285312560723469C864.737159399735 134.95272850651895 898.4466899927102 569.1579488292713 728.6057754701035 730.1961769563666C558.7648609474967 891.2344050834618 49.50076969122273 907.9362235165775 -34.413593522150165 777.268807570782C-118.327956735523 646.6013916249867 155.97591752330845 264.03080854364305 325.81683204591513 102.99258041654775C495.65774656852193 -58.04564771054743 696.9084329729894 -126.38210338507196 780.8227961863622 4.285312560723469C864.737159399735 134.95272850651895 898.4466899927102 569.1579488292713 728.6057754701035 730.1961769563666 "></path><path d="M717.3523301553018 70.2377655535326C787.280966166446 179.12727884169544 815.372241660592 540.9649624439891 673.8381462250862 675.1634858832351C532.3040507895805 809.3620093224813 107.91730807601891 823.2801913500775 37.98867206487489 714.390678061915C-31.939963946269188 605.501164773752 196.6465979360903 286.6923455392989 338.1806933715959 152.49382210005285C479.7147888071016 18.29529866080685 647.4236941441577 -38.65174773463025 717.3523301553018 70.2377655535326C787.280966166446 179.12727884169544 815.372241660592 540.9649624439891 673.8381462250862 675.1634858832351 "></path><path d="M653.8818641242415 136.1901880287636C709.8247729331567 223.30179865929392 732.2977933284734 512.7719455411288 619.070516980069 620.1307642925257C505.84324063166446 727.4895830439226 166.33384646081515 738.6241286659997 110.39093765189989 651.5125180354694C54.44802884298463 564.4009074049391 237.31727834887226 309.35385201737665 350.5445546972768 201.99503326597983C463.7718310456813 94.63621451458295 597.9389553153262 49.07857739823328 653.8818641242415 136.1901880287636C709.8247729331567 223.30179865929392 732.2977933284734 512.7719455411288 619.070516980069 620.1307642925257 "></path><path d="M590.4113980931811 202.14265628036173C632.3685796998675 267.4763642532595 649.2233449963551 484.5789744146357 564.3028877350517 565.0980884781833C479.3824304737484 645.6172025417309 224.75038484561134 653.9681117582887 182.79320323892495 588.634403785391C140.8360216322385 523.3006958124934 277.9879587616542 332.0154042718216 362.90841602295757 251.49629020827388C447.8288732842609 170.9771761447263 548.4542164864947 136.80894830746405 590.4113980931811 202.14265628036173C632.3685796998675 267.4763642532595 649.2233449963551 484.5789744146357 564.3028877350517 565.0980884781833 "></path><path d="M526.9409168033317 268.0951245319599C554.9123712077893 311.6509298472251 566.1488814054476 456.38600328814255 509.53524323124543 510.065412663841C452.92160505704317 563.7448220395395 283.1669079716185 569.312094850578 255.19545356716088 525.7562895353128C227.22399916270325 482.20048422004766 318.65862391564707 354.67695652626645 375.27226208984933 300.99754715056804C431.88590026405154 247.31813777486963 498.96946239887404 224.53931921669476 526.9409168033317 268.0951245319599C554.9123712077893 311.6509298472251 566.1488814054476 456.38600328814255 509.53524323124543 510.065412663841 "></path><path d="M463.47046603106037 334.0475470071909C477.4561932332892 355.82544966482345 483.0744483321183 428.1929863852822 454.76762924501725 455.03269107313145C426.4608101579161 481.8723957609807 341.58346161520376 484.6560321664999 327.597734412975 462.87812950886735C313.6120072107462 441.10022685123477 359.3293195872181 377.33846300434413 387.6361386743192 350.49875831649496C415.9429577614203 323.6590536286457 449.48473882883155 312.26964434955835 463.47046603106037 334.0475470071909C477.4561932332892 355.82544966482345 483.0744483321183 428.1929863852822 454.76762924501725 455.03269107313145 "></path></g></svg>