<svg xmlns="http://www.w3.org/2000/svg" version="1.1" xmlns:xlink="http://www.w3.org/1999/xlink" xmlns:svgjs="http://svgjs.dev/svgjs" viewBox="0 0 800 800"><defs><linearGradient x1="50%" y1="0%" x2="50%" y2="100%" id="ffflurry-grad" gradientTransform="rotate(270)"><stop stop-color="hsl(238, 82%, 13%)" stop-opacity="1" offset="0%"></stop><stop stop-color="hsl(265, 55%, 30%)" stop-opacity="1" offset="45%"></stop><stop stop-color="hsl(265, 55%, 60%)" stop-opacity="1" offset="100%"></stop></linearGradient></defs><rect width="100%" height="100%" fill="hsl(238, 82%, 13%)"></rect><g fill="url(#ffflurry-grad)"><rect width="752" height="3" x="76" y="53.5" rx="1.5" transform="rotate(45, 452, 55)" opacity="0.70"></rect><rect width="58" height="3" x="97" y="133.5" rx="1.5" transform="rotate(45, 126, 135)" opacity="0.55"></rect><rect width="558" height="3" x="-244" y="252.5" rx="1.5" transform="rotate(45, 35, 254)" opacity="0.39"></rect><rect width="206" height="3" x="643" y="329.5" rx="1.5" transform="rotate(45, 746, 331)" opacity="0.71"></rect><rect width="353" height="3" x="487.5" y="570.5" rx="1.5" transform="rotate(45, 664, 572)" opacity="0.69"></rect><rect width="37" height="3" x="544.5" y="399.5" rx="1.5" transform="rotate(45, 563, 401)" opacity="0.67"></rect><rect width="461" height="3" x="60.5" y="239.5" rx="1.5" transform="rotate(45, 291, 241)" opacity="0.40"></rect><rect width="397" height="3" x="-83.5" y="245.5" rx="1.5" transform="rotate(45, 115, 247)" opacity="0.37"></rect><rect width="99" height="3" x="17.5" y="772.5" rx="1.5" transform="rotate(45, 67, 774)" opacity="0.31"></rect><rect width="314" height="3" x="-8" y="439.5" rx="1.5" transform="rotate(45, 149, 441)" opacity="0.41"></rect><rect width="353" height="3" x="574.5" y="211.5" rx="1.5" transform="rotate(45, 751, 213)" opacity="0.15"></rect><rect width="287" height="3" x="49.5" y="269.5" rx="1.5" transform="rotate(45, 193, 271)" opacity="0.11"></rect><rect width="582" height="3" x="46" y="136.5" rx="1.5" transform="rotate(45, 337, 138)" opacity="0.95"></rect><rect width="322" height="3" x="529" y="657.5" rx="1.5" transform="rotate(45, 690, 659)" opacity="0.69"></rect><rect width="612" height="3" x="324" y="357.5" rx="1.5" transform="rotate(45, 630, 359)" opacity="0.58"></rect><rect width="427" height="3" x="180.5" y="743.5" rx="1.5" transform="rotate(45, 394, 745)" opacity="0.61"></rect><rect width="598" height="3" x="349" y="484.5" rx="1.5" transform="rotate(45, 648, 486)" opacity="0.56"></rect><rect width="214" height="3" x="208" y="628.5" rx="1.5" transform="rotate(45, 315, 630)" opacity="0.88"></rect><rect width="628" height="3" x="-161" y="43.5" rx="1.5" transform="rotate(45, 153, 45)" opacity="0.31"></rect><rect width="425" height="3" x="296.5" y="155.5" rx="1.5" transform="rotate(45, 509, 157)" opacity="0.19"></rect><rect width="604" height="3" x="269" y="663.5" rx="1.5" transform="rotate(45, 571, 665)" opacity="0.21"></rect><rect width="460" height="3" x="187" y="621.5" rx="1.5" transform="rotate(45, 417, 623)" opacity="0.51"></rect><rect width="492" height="3" x="-197" y="713.5" rx="1.5" transform="rotate(45, 49, 715)" opacity="0.55"></rect><rect width="226" height="3" x="471" y="457.5" rx="1.5" transform="rotate(45, 584, 459)" opacity="0.82"></rect><rect width="264" height="3" x="-89" y="339.5" rx="1.5" transform="rotate(45, 43, 341)" opacity="0.87"></rect><rect width="405" height="3" x="-77.5" y="339.5" rx="1.5" transform="rotate(45, 125, 341)" opacity="0.14"></rect><rect width="457" height="3" x="119.5" y="331.5" rx="1.5" transform="rotate(45, 348, 333)" opacity="0.77"></rect><rect width="341" height="3" x="31.5" y="337.5" rx="1.5" transform="rotate(45, 202, 339)" opacity="0.93"></rect><rect width="451" height="3" x="3.5" y="641.5" rx="1.5" transform="rotate(45, 229, 643)" opacity="0.53"></rect><rect width="31" height="3" x="753.5" y="596.5" rx="1.5" transform="rotate(45, 769, 598)" opacity="0.71"></rect><rect width="54" height="3" x="392" y="394.5" rx="1.5" transform="rotate(45, 419, 396)" opacity="0.30"></rect><rect width="482" height="3" x="433" y="138.5" rx="1.5" transform="rotate(45, 674, 140)" opacity="0.71"></rect><rect width="570" height="3" x="431" y="426.5" rx="1.5" transform="rotate(45, 716, 428)" opacity="0.90"></rect><rect width="574" height="3" x="341" y="753.5" rx="1.5" transform="rotate(45, 628, 755)" opacity="0.27"></rect><rect width="312" height="3" x="29" y="202.5" rx="1.5" transform="rotate(45, 185, 204)" opacity="0.27"></rect><rect width="330" height="3" x="-117" y="61.5" rx="1.5" transform="rotate(45, 48, 63)" opacity="0.13"></rect><rect width="109" height="3" x="436.5" y="593.5" rx="1.5" transform="rotate(45, 491, 595)" opacity="0.47"></rect><rect width="214" height="3" x="2" y="562.5" rx="1.5" transform="rotate(45, 109, 564)" opacity="0.77"></rect><rect width="442" height="3" x="32" y="452.5" rx="1.5" transform="rotate(45, 253, 454)" opacity="0.87"></rect><rect width="102" height="3" x="452" y="381.5" rx="1.5" transform="rotate(45, 503, 383)" opacity="0.83"></rect><rect width="150" height="3" x="504" y="103.5" rx="1.5" transform="rotate(45, 579, 105)" opacity="0.27"></rect><rect width="575" height="3" x="130.5" y="280.5" rx="1.5" transform="rotate(45, 418, 282)" opacity="0.08"></rect><rect width="377" height="3" x="45.5" y="545.5" rx="1.5" transform="rotate(45, 234, 547)" opacity="0.94"></rect><rect width="290" height="3" x="454" y="186.5" rx="1.5" transform="rotate(45, 599, 188)" opacity="0.12"></rect><rect width="221" height="3" x="-72.5" y="531.5" rx="1.5" transform="rotate(45, 38, 533)" opacity="0.39"></rect><rect width="250" height="3" x="-78" y="634.5" rx="1.5" transform="rotate(45, 47, 636)" opacity="0.32"></rect><rect width="523" height="3" x="42.5" y="700.5" rx="1.5" transform="rotate(45, 304, 702)" opacity="0.34"></rect><rect width="179" height="3" x="389.5" y="471.5" rx="1.5" transform="rotate(45, 479, 473)" opacity="0.85"></rect><rect width="35" height="3" x="688.5" y="28.5" rx="1.5" transform="rotate(45, 706, 30)" opacity="0.73"></rect><rect width="195" height="3" x="674.5" y="474.5" rx="1.5" transform="rotate(45, 772, 476)" opacity="0.30"></rect><rect width="163" height="3" x="166.5" y="38.5" rx="1.5" transform="rotate(45, 248, 40)" opacity="0.20"></rect><rect width="81" height="3" x="159.5" y="752.5" rx="1.5" transform="rotate(45, 200, 754)" opacity="0.40"></rect><rect width="74" height="3" x="738" y="62.5" rx="1.5" transform="rotate(45, 775, 64)" opacity="0.17"></rect><rect width="485" height="3" x="405.5" y="259.5" rx="1.5" transform="rotate(45, 648, 261)" opacity="0.54"></rect><rect width="229" height="3" x="188.5" y="533.5" rx="1.5" transform="rotate(45, 303, 535)" opacity="0.53"></rect><rect width="636" height="3" x="169" y="727.5" rx="1.5" transform="rotate(45, 487, 729)" opacity="0.66"></rect><rect width="252" height="3" x="137" y="360.5" rx="1.5" transform="rotate(45, 263, 362)" opacity="0.29"></rect><rect width="609" height="3" x="97.5" y="504.5" rx="1.5" transform="rotate(45, 402, 506)" opacity="0.89"></rect><rect width="452" height="3" x="-172" y="435.5" rx="1.5" transform="rotate(45, 54, 437)" opacity="0.70"></rect><rect width="400" height="3" x="-6" y="488.5" rx="1.5" transform="rotate(45, 194, 490)" opacity="0.97"></rect><rect width="190" height="3" x="447" y="528.5" rx="1.5" transform="rotate(45, 542, 530)" opacity="0.37"></rect><rect width="119" height="3" x="240.5" y="769.5" rx="1.5" transform="rotate(45, 300, 771)" opacity="0.79"></rect><rect width="683" height="3" x="181.5" y="283.5" rx="1.5" transform="rotate(45, 523, 285)" opacity="0.55"></rect><rect width="623" height="3" x="30.5" y="43.5" rx="1.5" transform="rotate(45, 342, 45)" opacity="0.50"></rect><rect width="364" height="3" x="557" y="120.5" rx="1.5" transform="rotate(45, 739, 122)" opacity="0.62"></rect><rect width="517" height="3" x="69.5" y="436.5" rx="1.5" transform="rotate(45, 328, 438)" opacity="0.50"></rect><rect width="376" height="3" x="42" y="131.5" rx="1.5" transform="rotate(45, 230, 133)" opacity="0.87"></rect><rect width="321" height="3" x="442.5" y="580.5" rx="1.5" transform="rotate(45, 603, 582)" opacity="0.75"></rect><rect width="584" height="3" x="129" y="184.5" rx="1.5" transform="rotate(45, 421, 186)" opacity="0.34"></rect><rect width="177" height="3" x="631.5" y="541.5" rx="1.5" transform="rotate(45, 720, 543)" opacity="0.10"></rect><rect width="457" height="3" x="-56.5" y="581.5" rx="1.5" transform="rotate(45, 172, 583)" opacity="0.32"></rect><rect width="232" height="3" x="-66" y="173.5" rx="1.5" transform="rotate(45, 50, 175)" opacity="0.16"></rect><rect width="533" height="3" x="488.5" y="732.5" rx="1.5" transform="rotate(45, 755, 734)" opacity="0.74"></rect><rect width="325" height="3" x="399.5" y="33.5" rx="1.5" transform="rotate(45, 562, 35)" opacity="0.59"></rect><rect width="391" height="3" x="446.5" y="63.5" rx="1.5" transform="rotate(45, 642, 65)" opacity="0.14"></rect><rect width="180" height="3" x="271" y="579.5" rx="1.5" transform="rotate(45, 361, 581)" opacity="0.50"></rect><rect width="126" height="3" x="77" y="688.5" rx="1.5" transform="rotate(45, 140, 690)" opacity="0.23"></rect></g></svg>