<svg xmlns="http://www.w3.org/2000/svg" version="1.1" xmlns:xlink="http://www.w3.org/1999/xlink" xmlns:svgjs="http://svgjs.dev/svgjs" viewBox="0 0 800 800"><defs><linearGradient x1="50%" y1="0%" x2="50%" y2="100%" id="vvvortex-grad"><stop stop-color="#7b2de0" stop-opacity="1" offset="0%"></stop><stop stop-color="#7b2de0" stop-opacity="1" offset="100%"></stop></linearGradient></defs><g stroke="url(#vvvortex-grad)" fill="none" stroke-linecap="round"><circle r="330" cx="400" cy="400" stroke-width="5" stroke-dasharray="52 45" stroke-dashoffset="25" transform="rotate(79, 400, 400)" opacity="0.05"></circle><circle r="315" cx="400" cy="400" stroke-width="5" stroke-dasharray="13 41" stroke-dashoffset="25" transform="rotate(141, 400, 400)" opacity="0.10"></circle><circle r="300" cx="400" cy="400" stroke-width="5" stroke-dasharray="48 41" stroke-dashoffset="25" transform="rotate(83, 400, 400)" opacity="0.14"></circle><circle r="285" cx="400" cy="400" stroke-width="4" stroke-dasharray="12 44" stroke-dashoffset="25" transform="rotate(303, 400, 400)" opacity="0.19"></circle><circle r="270" cx="400" cy="400" stroke-width="4" stroke-dasharray="45 20" stroke-dashoffset="25" transform="rotate(13, 400, 400)" opacity="0.23"></circle><circle r="255" cx="400" cy="400" stroke-width="4" stroke-dasharray="19 23" stroke-dashoffset="25" transform="rotate(332, 400, 400)" opacity="0.28"></circle><circle r="240" cx="400" cy="400" stroke-width="4" stroke-dasharray="24 48" stroke-dashoffset="25" transform="rotate(276, 400, 400)" opacity="0.32"></circle><circle r="225" cx="400" cy="400" stroke-width="4" stroke-dasharray="50 14" stroke-dashoffset="25" transform="rotate(136, 400, 400)" opacity="0.37"></circle><circle r="210" cx="400" cy="400" stroke-width="3" stroke-dasharray="35 35" stroke-dashoffset="25" transform="rotate(209, 400, 400)" opacity="0.41"></circle><circle r="195" cx="400" cy="400" stroke-width="3" stroke-dasharray="41 29" stroke-dashoffset="25" transform="rotate(203, 400, 400)" opacity="0.46"></circle><circle r="180" cx="400" cy="400" stroke-width="3" stroke-dasharray="29 27" stroke-dashoffset="25" transform="rotate(334, 400, 400)" opacity="0.50"></circle><circle r="165" cx="400" cy="400" stroke-width="3" stroke-dasharray="46 53" stroke-dashoffset="25" transform="rotate(119, 400, 400)" opacity="0.55"></circle><circle r="150" cx="400" cy="400" stroke-width="3" stroke-dasharray="18 38" stroke-dashoffset="25" transform="rotate(338, 400, 400)" opacity="0.59"></circle><circle r="135" cx="400" cy="400" stroke-width="3" stroke-dasharray="35 14" stroke-dashoffset="25" transform="rotate(23, 400, 400)" opacity="0.64"></circle><circle r="120" cx="400" cy="400" stroke-width="2" stroke-dasharray="33 43" stroke-dashoffset="25" transform="rotate(194, 400, 400)" opacity="0.68"></circle><circle r="105" cx="400" cy="400" stroke-width="2" stroke-dasharray="43 36" stroke-dashoffset="25" transform="rotate(273, 400, 400)" opacity="0.73"></circle><circle r="90" cx="400" cy="400" stroke-width="2" stroke-dasharray="20 40" stroke-dashoffset="25" transform="rotate(70, 400, 400)" opacity="0.77"></circle><circle r="75" cx="400" cy="400" stroke-width="2" stroke-dasharray="20 16" stroke-dashoffset="25" transform="rotate(338, 400, 400)" opacity="0.82"></circle><circle r="60" cx="400" cy="400" stroke-width="2" stroke-dasharray="13 27" stroke-dashoffset="25" transform="rotate(204, 400, 400)" opacity="0.86"></circle><circle r="45" cx="400" cy="400" stroke-width="1" stroke-dasharray="48 34" stroke-dashoffset="25" transform="rotate(55, 400, 400)" opacity="0.91"></circle><circle r="30" cx="400" cy="400" stroke-width="1" stroke-dasharray="28 33" stroke-dashoffset="25" transform="rotate(75, 400, 400)" opacity="0.95"></circle><circle r="15" cx="400" cy="400" stroke-width="1" stroke-dasharray="14 21" stroke-dashoffset="25" transform="rotate(57, 400, 400)" opacity="1.00"></circle></g></svg>